HIERARCHY
ROOT SpineBase
{
  OFFSET 0.000000 0.000000 0.000000
  CHANNELS 6 Xposition Yposition Zposition Zrotation Xrotation Yrotation
  JOINT SpineMid
  {
    OFFSET 0.000000 34.951304 0.000000
    CHANNELS 3 Zrotation Xrotation Yrotation
    JOINT SpineShoulder
    {
      OFFSET 0.177542 26.101941 -0.654647
      CHANNELS 3 Zrotation Xrotation Yrotation
      JOINT Neck
      {
        OFFSET 0.105175 8.663308 -0.533062
        CHANNELS 3 Zrotation Xrotation Yrotation
        JOINT Head
        {
          OFFSET 0.196313 12.620172 4.587869
          CHANNELS 3 Zrotation Xrotation Yrotation
          End Site
          {
            OFFSET 0 0 0
          }
        }
      }
      JOINT ShoulderLeft
      {
        OFFSET -13.426279 -7.193945 -6.740149
        CHANNELS 3 Zrotation Xrotation Yrotation
        JOINT ElbowLeft
        {
          OFFSET -5.301278 -23.925582 4.734147
          CHANNELS 3 Zrotation Xrotation Yrotation
          JOINT WristLeft
          {
            OFFSET -2.147284 -23.340017 3.990054
            CHANNELS 3 Zrotation Xrotation Yrotation
            JOINT HandLeft
            {
              OFFSET -1.102860 -6.216842 0.511057
              CHANNELS 3 Zrotation Xrotation Yrotation
              JOINT HandTipLeft
              {
                OFFSET 0.867089 -4.975762 -0.855352
                CHANNELS 3 Zrotation Xrotation Yrotation
                End Site
                {
                  OFFSET 0 0 0
                }
              }
              JOINT ThumbLeft
              {
                OFFSET -0.533558 -0.000789 -0.836810
                CHANNELS 3 Zrotation Xrotation Yrotation
                End Site
                {
                  OFFSET 0 0 0
                }
              }
            }
          }
        }
      }
      JOINT ShoulderRight
      {
        OFFSET 14.847471 -6.542810 -6.922906
        CHANNELS 3 Zrotation Xrotation Yrotation
        JOINT ElbowRight
        {
          OFFSET 6.609995 -24.014354 3.267806
          CHANNELS 3 Zrotation Xrotation Yrotation
          JOINT WristRight
          {
            OFFSET -0.047568 -25.479803 7.796254
            CHANNELS 3 Zrotation Xrotation Yrotation
            JOINT HandRight
            {
              OFFSET -0.183368 -3.344768 1.755586
              CHANNELS 3 Zrotation Xrotation Yrotation
              JOINT HandTipRight
              {
                OFFSET -0.486388 -5.903998 0.896906
                CHANNELS 3 Zrotation Xrotation Yrotation
                End Site
                {
                  OFFSET 0 0 0
                }
              }
              JOINT ThumbRight
              {
                OFFSET -0.714202 0.943795 -1.915865
                CHANNELS 3 Zrotation Xrotation Yrotation
                End Site
                {
                  OFFSET 0 0 0
                }
              }
            }
          }
        }
      }
    }
  }
  JOINT HipLeft
  {
    OFFSET -7.381521 1.402024 -2.846331
    CHANNELS 3 Zrotation Xrotation Yrotation
    JOINT KneeLeft
    {
      OFFSET -3.985601 -28.250329 -4.279529
      CHANNELS 3 Zrotation Xrotation Yrotation
      JOINT AnkleLeft
      {
        OFFSET -0.956498 -35.715611 -0.483573
        CHANNELS 3 Zrotation Xrotation Yrotation
        JOINT FootLeft
        {
          OFFSET 0.096001 -2.836543 -9.343553
          CHANNELS 3 Zrotation Xrotation Yrotation
          End Site
          {
            OFFSET 0 0 0
          }
        }
      }
    }
  }
  JOINT HipRight
  {
    OFFSET 7.814205 1.555144 -3.200838
    CHANNELS 3 Zrotation Xrotation Yrotation
    JOINT KneeRight
    {
      OFFSET 3.304903 -29.901452 -1.996724
      CHANNELS 3 Zrotation Xrotation Yrotation
      JOINT AnkleRight
      {
        OFFSET -0.226657 -35.591562 0.530459
        CHANNELS 3 Zrotation Xrotation Yrotation
        JOINT FootRight
        {
          OFFSET 0.455330 -3.945374 -3.895593
          CHANNELS 3 Zrotation Xrotation Yrotation
          End Site
          {
            OFFSET 0 0 0
          }
        }
      }
    }
  }
}
MOTION
Frames: 6
Frame Time: 0.033333
-15.700992 68.525361 248.904905 -1.057691 0.988557 -0.512881 0.205204 -0.190632 0.495485 0.192038 0.026442 -0.022416 3.912531 -5.039006 -0.905261 0.000000 0.000000 0.000000 0.662844 -0.821870 0.055497 2.100379 -2.059538 0.585546 23.284110 39.700012 -16.077937 -110.335097 -62.935160 -82.986744 0.000000 0.000000 0.000000 0.000000 0.000000 0.000000 -1.204665 1.929542 0.581759 3.277921 4.013259 -0.061225 -8.573832 10.856290 -5.475277 15.747498 -10.796483 8.837622 0.000000 0.000000 0.000000 0.000000 0.000000 0.000000 1.066653 -0.978880 0.531118 -0.000000 0.000000 0.000000 -0.806208 -0.108620 2.659708 0.000000 0.000000 0.000000 -0.494993 -0.801165 0.632403 1.559366 -0.195234 -0.122887 -1.516196 22.842387 3.734377 0.000000 0.000000 0.000000
-15.683539 68.524504 248.916510 -1.045102 0.983831 -0.299916 0.207252 -0.203783 0.282818 0.190029 0.017030 -0.021875 4.039091 -5.154428 -0.946508 0.000000 0.000000 0.000000 0.649537 -0.795355 0.054112 2.175018 -1.994487 0.592514 20.327546 37.385922 -14.031144 -96.693214 -63.765233 -70.378519 0.000000 0.000000 0.000000 0.000000 0.000000 0.000000 -1.049926 1.881712 0.580506 3.255113 4.046908 -0.026573 -8.080964 9.665878 -5.150208 15.222083 -11.147397 8.343437 0.000000 0.000000 0.000000 0.000000 0.000000 0.000000 1.050390 -0.978182 0.317856 -0.000000 0.000000 0.000000 -0.644269 0.734902 2.106894 0.000000 0.000000 0.000000 -0.502110 -0.807742 0.417188 1.896608 0.622030 -0.122391 -2.421236 19.620808 4.065325 0.000000 0.000000 0.000000
-15.672977 68.521874 248.938360 -1.032190 0.963919 -0.106171 0.227386 -0.228533 0.089957 0.200790 -0.014240 -0.019544 4.337446 -5.387782 -1.050373 0.000000 0.000000 0.000000 1.405804 -0.813861 0.240084 1.337842 -1.908064 0.404650 18.419785 35.565928 -12.635525 -89.481419 -63.668418 -63.828709 0.000000 0.000000 0.000000 0.000000 0.000000 0.000000 -0.950098 1.872138 0.571609 3.258466 4.020546 0.016369 -7.936060 8.620047 -4.998958 14.348329 -10.797006 7.746169 0.000000 0.000000 0.000000 0.000000 0.000000 0.000000 0.213490 -0.958694 0.233272 0.820495 -0.006593 -0.123444 -0.336233 2.086359 1.117347 0.000000 0.000000 0.000000 -0.501179 -0.787057 0.222414 1.888660 0.648856 -0.121370 -2.393203 18.411749 3.925252 0.000000 0.000000 0.000000
-15.668522 68.517562 248.968020 -1.001199 0.927064 0.035311 0.271974 -0.263272 -0.049486 0.729312 -0.663659 0.027027 4.099762 -5.094924 -1.250122 0.000000 0.000000 0.000000 1.032497 -0.112983 0.230773 1.041530 -1.749390 0.327001 16.228319 32.469225 -10.738136 -76.481713 -62.220433 -51.380117 0.000000 0.000000 0.000000 0.000000 0.000000 0.000000 -1.419916 2.516741 0.534228 3.295340 3.925815 0.067137 -8.217382 7.489755 -5.062725 14.068277 -10.288991 7.463276 0.000000 0.000000 0.000000 0.000000 0.000000 0.000000 0.152601 -0.875243 0.088562 0.847965 -0.053703 -0.120618 0.129353 3.874748 -0.269263 0.000000 0.000000 0.000000 -0.511252 -0.731644 0.081696 1.872206 0.586680 -0.120958 -1.396632 15.102554 2.638668 0.000000 0.000000 0.000000
-15.672260 68.514559 248.993206 -0.976278 0.890982 0.158123 0.324224 -0.301612 -0.170062 0.651420 -0.590021 0.023703 4.684462 -5.809073 -1.402353 0.000000 0.000000 0.000000 1.254527 -0.071218 0.265413 0.693271 -1.558965 0.244900 15.274858 30.119791 -9.550970 -68.984456 -60.434703 -43.935665 0.000000 0.000000 0.000000 0.000000 0.000000 0.000000 -1.415459 2.454474 0.516664 3.411144 3.805677 0.120693 -8.479446 6.594488 -5.129517 13.128073 -9.884629 7.001345 0.000000 0.000000 0.000000 0.000000 0.000000 0.000000 0.117576 -0.768959 -0.042996 0.856350 -0.124028 -0.111438 0.746379 6.008785 -1.955497 0.000000 0.000000 0.000000 -0.506503 -0.669216 -0.039715 1.837845 0.589790 -0.121550 -0.257225 2.899244 0.316875 0.000000 0.000000 0.000000
-15.677441 68.511315 249.017565 -0.941295 0.845827 0.258918 0.937567 -0.849958 -0.245016 -0.000000 0.000000 0.000000 5.387338 -6.462525 -1.588588 0.000000 0.000000 0.000000 1.455183 0.057726 0.275230 0.264920 -1.428845 0.166598 15.017782 27.523707 -8.444931 -64.545215 -58.598556 -39.092444 0.000000 0.000000 0.000000 0.000000 0.000000 0.000000 -1.445819 2.367785 0.488021 3.586772 3.662457 0.194035 -9.357916 5.858664 -5.531296 12.891966 -8.526371 6.882693 0.000000 0.000000 0.000000 0.000000 0.000000 0.000000 0.059563 -0.646739 -0.151622 0.878448 -0.200972 -0.103320 0.193759 4.292226 -0.445186 0.000000 0.000000 0.000000 -0.510498 -0.585733 -0.137736 1.813320 0.579740 -0.123088 -0.362996 -0.841442 -0.002717 0.000000 0.000000 0.000000
